<svg id="svg" version="1.1" xmlns="http://www.w3.org/2000/svg" style="display: block;" viewBox="0 0 1920 1080"><path d="M0 0 C633.6 0 1267.2 0 1920 0 C1920 356.4 1920 712.8 1920 1080 C1286.4 1080 652.8 1080 0 1080 C0 723.6 0 367.2 0 0 Z " transform="translate(0,0)" style="fill: #FEFEFE;"/><path d="M0 0 C0 268.29 0 536.58 0 813 C-268.62 813 -537.24 813 -814 813 C-814 770.46340273 -814 770.46340273 -800.43246651 755.65228367 C-799.3940308 754.69138176 -798.34325355 753.74363059 -797.28005981 752.81019592 C-796.08224518 751.70952995 -794.88545462 750.60774869 -793.68957901 749.50497627 C-793.08372672 748.95336807 -792.47787442 748.40175986 -791.85366297 747.83343625 C-788.70634915 744.92708445 -785.67259289 741.90608083 -782.62350464 738.89744568 C-776.86496076 733.24862045 -771.01408622 727.70711151 -765.12099826 722.19917196 C-758.40803952 715.91440384 -751.81571781 709.5086385 -745.22711396 703.09404099 C-735.52721388 693.65778466 -725.78539519 684.26506042 -715.93037415 674.99071693 C-714.86861043 673.99091987 -713.80835982 672.98951323 -712.74970627 671.98642349 C-711.31010473 670.6237349 -709.86351874 669.26843603 -708.41653442 667.91358948 C-707.60720018 667.15306558 -706.79786594 666.39254168 -705.96400642 665.6089716 C-704 664 -704 664 -702 664 C-702 663.34 -702 662.68 -702 662 C-701.34 662 -700.68 662 -700 662 C-700 661.34 -700 660.68 -700 660 C-699.34 660 -698.68 660 -698 660 C-697.773125 659.443125 -697.54625 658.88625 -697.3125 658.3125 C-695.62449964 655.33840412 -693.53323483 653.27991135 -691 651 C-690.34 651 -689.68 651 -689 651 C-689 650.34 -689 649.68 -689 649 C-688.34 649 -687.68 649 -687 649 C-687 648.34 -687 647.68 -687 647 C-686.34 647 -685.68 647 -685 647 C-685 646.34 -685 645.68 -685 645 C-684.34 645 -683.68 645 -683 645 C-682.5978125 644.1028125 -682.5978125 644.1028125 -682.1875 643.1875 C-681.00082594 641.00152146 -679.90400887 639.58667406 -678 638 C-677.34 638 -676.68 638 -676 638 C-676 637.34 -676 636.68 -676 636 C-675.34 636 -674.68 636 -674 636 C-674 635.34 -674 634.68 -674 634 C-672.22918701 633.30628967 -672.22918701 633.30628967 -670 633 C-668.19024658 634.20848083 -668.19024658 634.20848083 -666.33300781 636.09936523 C-665.63258362 636.80016708 -664.93215942 637.50096893 -664.21051025 638.2230072 C-663.46557312 638.99375076 -662.72063599 639.76449432 -661.953125 640.55859375 C-661.18192322 641.33687027 -660.41072144 642.11514679 -659.6161499 642.91700745 C-657.14882582 645.4123828 -654.69941768 647.92455759 -652.25 650.4375 C-650.58318045 652.12938815 -648.91522561 653.82015864 -647.24609375 655.50976562 C-643.15076257 659.6603092 -639.0714208 663.82600465 -635 668 C-667.0595035 705.40275408 -704.16626794 738.16626794 -739 773 C-508.33 773.33 -277.66 773.66 -40 774 C-39.93909913 650.71252448 -39.93909913 650.71252448 -39.93213964 527.42502546 C-39.93287713 524.50536571 -39.93361235 521.58570596 -39.93430528 518.6660462 C-39.95731484 422.02533288 -40.1872206 325.38546774 -40.49097854 228.7452693 C-40.50003302 225.86449278 -40.50906862 222.98371619 -40.51810217 220.10293961 C-40.55964933 206.86484871 -40.60174145 193.6267596 -40.64428711 180.38867188 C-40.64698269 179.54907177 -40.64967826 178.70947167 -40.65245552 177.84442914 C-40.76154184 143.89626195 -40.88175795 109.94813769 -41 76 C-114.26 149.26 -114.26 149.26 -189 224 C-187.21153635 227.57692729 -185.93920313 229.30863475 -183.19088745 232.04962158 C-182.39720764 232.84605072 -181.60352783 233.64247986 -180.78579712 234.46304321 C-179.47812881 235.75992569 -179.47812881 235.75992569 -178.14404297 237.08300781 C-177.22691528 238.00042755 -176.3097876 238.91784729 -175.36486816 239.86306763 C-172.8529964 242.37551297 -170.33500797 244.88174606 -167.81587744 247.38691044 C-165.1830938 250.00718777 -162.55597647 252.63313362 -159.92825317 255.25848389 C-154.95283319 260.22768882 -149.97233713 265.19177369 -144.98999798 270.1540401 C-139.31743327 275.80424663 -133.65054957 281.46013628 -127.98413634 287.11651087 C-116.32906793 298.7506767 -104.66688468 310.37768345 -93 322 C-97.4856326 327.36431606 -102.21606506 332.38051964 -107.14501953 337.33789062 C-107.93926331 338.14031189 -108.73350708 338.94273315 -109.55181885 339.76947021 C-112.15912132 342.40142185 -114.77040707 345.02936377 -117.3828125 347.65625 C-118.27698757 348.55574875 -119.17116264 349.4552475 -120.09243393 350.38200378 C-123.84629272 354.15703041 -127.60116257 357.93103683 -131.35995674 361.70114899 C-136.73418536 367.0916754 -142.09968724 372.49057136 -147.45364296 377.90123606 C-151.68349058 382.17435108 -155.92685781 386.43378266 -160.1751976 390.68852234 C-161.97922617 392.49928884 -163.77897727 394.31432705 -165.57440567 396.13362122 C-168.07602527 398.6666213 -170.59269973 401.18364493 -173.11376953 403.69726562 C-173.85672272 404.45662415 -174.5996759 405.21598267 -175.36514282 405.99835205 C-176.39532532 407.01605682 -176.39532532 407.01605682 -177.44631958 408.05432129 C-178.03953569 408.65084755 -178.63275181 409.24737381 -179.24394417 409.86197662 C-181 411 -181 411 -182.80763972 410.85016876 C-185.84991585 409.6704137 -187.52895835 407.84329981 -189.83382034 405.53532314 C-190.3078036 405.06480141 -190.78178687 404.59427969 -191.27013326 404.10949972 C-192.86562535 402.52198441 -194.45014164 400.92394333 -196.03497314 399.32579041 C-197.18447961 398.1775915 -198.33464482 397.03005178 -199.48541331 395.88311774 C-202.65279428 392.72246347 -205.81071387 389.55249938 -208.96721363 386.38098323 C-212.37007804 382.96519422 -215.78157588 379.55804755 -219.19204712 376.14985657 C-225.1020771 370.24140158 -231.00657834 364.32746744 -236.90738678 358.40980339 C-245.43902784 349.85380762 -253.97891576 341.30608275 -262.52085575 332.76037044 C-276.37850089 318.89615528 -290.22942976 305.0252503 -304.07617188 291.15014648 C-317.52904216 277.66974989 -330.98505173 264.19249975 -344.4453125 250.71948242 C-345.27464638 249.88936037 -346.10398025 249.05923833 -346.95844546 248.20396107 C-351.11888314 244.03960835 -355.27938279 239.87531755 -359.43991327 235.71105754 C-393.96955659 201.15030116 -428.48831669 166.57869026 -463 132 C-466.52344644 133.6586188 -468.79901878 135.56657308 -471.546875 138.3515625 C-472.39121094 139.20234375 -473.23554687 140.053125 -474.10546875 140.9296875 C-474.97816406 141.81914062 -475.85085938 142.70859375 -476.75 143.625 C-477.63816406 144.5221875 -478.52632812 145.419375 -479.44140625 146.34375 C-481.63216969 148.55807004 -483.81812763 150.77692435 -486 153 C-482.11124466 157.65107112 -478.07632784 162.0673397 -473.78001595 166.34303188 C-473.18047372 166.94372796 -472.58093149 167.54442403 -471.96322131 168.16332301 C-469.96222617 170.16695602 -467.95769741 172.16701485 -465.95315552 174.167099 C-464.49995882 175.62073197 -463.04698198 177.07458477 -461.59420574 178.52863795 C-457.60805349 182.51702398 -453.61879365 186.50228896 -449.62901688 190.48704875 C-445.32461311 194.78713219 -441.02310157 199.09010711 -436.72123718 203.39273071 C-429.26974259 210.84474954 -421.81643715 218.29495365 -414.36185074 225.74387932 C-406.54503295 233.55477653 -398.72925328 241.36671012 -390.91485214 249.1800251 C-390.42865686 249.66615164 -389.94246158 250.15227819 -389.44153311 250.65313583 C-386.9723164 253.1220142 -384.50311818 255.59091104 -382.03392707 258.059815 C-364.55261296 275.53902967 -347.0689824 293.01592561 -329.58398438 310.49145508 C-312.5994105 327.46684201 -295.61588921 344.44328092 -278.63378906 361.42114258 C-278.11016459 361.94463552 -277.58654013 362.46812846 -277.04704825 363.00748483 C-271.78851314 368.2647014 -266.52999939 373.52193934 -261.27150129 378.77919293 C-250.5596952 389.48846293 -239.84774655 400.19759032 -229.13571167 410.90663147 C-228.6432088 411.39899705 -228.15070593 411.89136263 -227.64327872 412.39864839 C-194.76457422 445.26815496 -161.88253649 478.13432698 -129 511 C-129.95460632 512.12006231 -130.9101179 513.23935313 -131.86600935 514.35831887 C-132.39801234 514.9817068 -132.93001533 515.60509474 -133.47813962 516.24737323 C-135.28908251 518.33291736 -137.18398807 520.30697968 -139.13827515 522.25852966 C-139.903797 523.02542618 -140.66931885 523.79232269 -141.45803833 524.5824585 C-142.27803314 525.39885803 -143.09802795 526.21525757 -143.94287109 527.05639648 C-144.8215686 527.93524002 -145.70026611 528.81408356 -146.60559082 529.71955872 C-148.99592117 532.10931511 -151.38843608 534.4968428 -153.78198195 536.88337588 C-156.29018525 539.38529346 -158.79552389 541.89007639 -161.30117798 544.39454651 C-166.03762814 549.12789866 -170.77661977 553.85869768 -175.5165478 558.58856684 C-180.91639542 563.97720561 -186.31337627 569.36871174 -191.71012759 574.7604512 C-202.80358268 585.84347658 -213.9006019 596.92292622 -225 608 C-228.15842789 606.60134393 -230.28971425 604.95932968 -232.72498703 602.52110863 C-233.45401411 601.79606365 -234.18304119 601.07101866 -234.93415999 600.32400262 C-235.72793493 599.52440201 -236.52170986 598.72480139 -237.33953857 597.90097046 C-238.61260813 596.63046418 -238.61260813 596.63046418 -239.91139627 595.3342911 C-242.26613838 592.98227578 -244.6163048 590.62585071 -246.96466136 588.26746988 C-249.49814945 585.72535141 -252.03740801 583.18900861 -254.57597351 580.65196228 C-258.97341778 576.25556712 -263.36718299 571.85552256 -267.75847626 567.45298386 C-274.10756648 561.08764516 -280.46216683 554.72783095 -286.81812909 548.36935504 C-297.12990167 538.05320433 -307.43719926 527.73259444 -317.74169922 517.40917969 C-327.75205219 507.38047096 -337.76450189 497.35386326 -347.77978516 487.33007812 C-348.39704235 486.71229549 -349.01429954 486.09451285 -349.65026149 485.45800953 C-352.74684729 482.35881366 -355.84347443 479.25965911 -358.94012213 476.16052508 C-384.63316012 450.44675093 -410.31894284 424.72573947 -436 399 C-434.3413812 395.47655356 -432.43342692 393.20098122 -429.6484375 390.453125 C-428.79765625 389.60878906 -427.946875 388.76445312 -427.0703125 387.89453125 C-426.18085937 387.02183594 -425.29140625 386.14914062 -424.375 385.25 C-423.4778125 384.36183594 -422.580625 383.47367187 -421.65625 382.55859375 C-419.44192996 380.36783031 -417.22307565 378.18187237 -415 376 C-409.84679045 380.31227549 -405.02652727 384.83302993 -400.28675842 389.59298706 C-399.1691025 390.70936135 -399.1691025 390.70936135 -398.02886766 391.84828866 C-395.54689528 394.32862135 -393.06850058 396.81249748 -390.59008789 399.29638672 C-388.80604169 401.08071514 -387.02177496 402.8648231 -385.23730469 404.64872742 C-381.40319016 408.48261464 -377.57060776 412.31802307 -373.73942757 416.15484238 C-368.20026992 421.70214778 -362.65833336 427.24667015 -357.11572772 432.79053022 C-348.12198651 441.7864568 -339.13047797 450.78461148 -330.14038086 459.78417969 C-321.41043693 468.52331105 -312.67943706 477.26138523 -303.94702148 485.99804688 C-303.13881078 486.80665166 -303.13881078 486.80665166 -302.31427259 487.6315919 C-299.61106737 490.33610222 -296.90784144 493.04059184 -294.20460522 495.74507117 C-271.79985951 518.16017348 -249.39877784 540.57893412 -227 563 C-222.88265434 561.11188747 -220.11227423 558.33285041 -216.9921875 555.1171875 C-216.42549347 554.54292023 -215.85879944 553.96865295 -215.27493286 553.37698364 C-213.47006065 551.54772841 -211.67179721 549.71218548 -209.875 547.875 C-207.5030691 545.45006506 -205.12473696 543.03168498 -202.7421875 540.6171875 C-202.19634003 540.05474335 -201.65049255 539.49229919 -201.08810425 538.91281128 C-199.76295176 537.5704077 -198.38581578 536.27968399 -197 535 C-196.34 535 -195.68 535 -195 535 C-194.7421875 534.41734375 -194.484375 533.8346875 -194.21875 533.234375 C-192.90165983 530.8197097 -191.44911616 529.18259823 -189.5 527.25 C-188.8915625 526.63640625 -188.283125 526.0228125 -187.65625 525.390625 C-186 524 -186 524 -184 524 C-184 523.34 -184 522.68 -184 522 C-183.34 522 -182.68 522 -182 522 C-181.773125 521.443125 -181.54625 520.88625 -181.3125 520.3125 C-179.62449964 517.33840412 -177.53323483 515.27991135 -175 513 C-174.34 513 -173.68 513 -173 513 C-177.68371989 506.32075156 -183.06644257 500.9574915 -189.1328125 495.578125 C-191.85173069 493.13332118 -194.43431814 490.60397562 -197 488 C-197.62003906 487.3915625 -198.24007812 486.783125 -198.87890625 486.15625 C-201.38943956 483.68649102 -203.77716808 481.28752505 -205.9375 478.5 C-207.82178235 476.2160214 -209.69298819 474.47619757 -211.9375 472.5625 C-215.37075115 469.63506854 -218.10891372 466.46930354 -221 463 C-222.31581441 461.81360996 -223.65057606 460.64801738 -225 459.5 C-228.41348918 456.59598682 -231.12809668 453.44628398 -234 450 C-235.27453636 448.85562906 -236.56777536 447.7318837 -237.875 446.625 C-241.36124773 443.66103658 -244.26190605 440.46422984 -247.2109375 436.9765625 C-249.6551569 434.27618037 -252.3884473 431.99867106 -255.1640625 429.6484375 C-257.7337317 427.3412026 -259.79124852 424.65050177 -262 422 C-263.27453636 420.85562906 -264.56777536 419.7318837 -265.875 418.625 C-268.67584657 416.24375591 -271.12652693 413.80698414 -273.5 411 C-276.47196428 407.48953761 -279.68786192 404.50282026 -283.203125 401.54296875 C-284.8981002 400.08750092 -286.51629545 398.67145728 -288 397 C-288 396.34 -288 395.68 -288 395 C-288.56203125 394.7628125 -289.1240625 394.525625 -289.703125 394.28125 C-292.51894042 392.71052303 -294.47955416 390.78528536 -296.75 388.5 C-297.54921875 387.7059375 -298.3484375 386.911875 -299.171875 386.09375 C-301 384 -301 384 -301 382 C-301.56203125 381.7628125 -302.1240625 381.525625 -302.703125 381.28125 C-305.51894042 379.71052303 -307.47955416 377.78528536 -309.75 375.5 C-310.54921875 374.7059375 -311.3484375 373.911875 -312.171875 373.09375 C-314 371 -314 371 -314 369 C-314.58265625 368.7421875 -315.1653125 368.484375 -315.765625 368.21875 C-318.1802903 366.90165983 -319.81740177 365.44911616 -321.75 363.5 C-322.36359375 362.8915625 -322.9771875 362.283125 -323.609375 361.65625 C-325 360 -325 360 -325 358 C-325.56203125 357.7628125 -326.1240625 357.525625 -326.703125 357.28125 C-329.51894042 355.71052303 -331.47955416 353.78528536 -333.75 351.5 C-334.54921875 350.7059375 -335.3484375 349.911875 -336.171875 349.09375 C-338 347 -338 347 -338 345 C-338.54140625 344.7834375 -339.0828125 344.566875 -339.640625 344.34375 C-342.81645344 342.53500003 -345.20728081 340.08276201 -347.75 337.5 C-348.25660156 337.00113281 -348.76320313 336.50226563 -349.28515625 335.98828125 C-353 332.25341139 -353 332.25341139 -353 330 C-353.58265625 329.7421875 -354.1653125 329.484375 -354.765625 329.21875 C-357.1802903 327.90165983 -358.81740177 326.44911616 -360.75 324.5 C-361.36359375 323.8915625 -361.9771875 323.283125 -362.609375 322.65625 C-364 321 -364 321 -364 319 C-364.56203125 318.7628125 -365.1240625 318.525625 -365.703125 318.28125 C-368.51894042 316.71052303 -370.47955416 314.78528536 -372.75 312.5 C-373.54921875 311.7059375 -374.3484375 310.911875 -375.171875 310.09375 C-377 308 -377 308 -377 306 C-377.5332725 305.79107306 -378.06654501 305.58214611 -378.61597729 305.36688805 C-381.94651759 303.45731072 -384.45600767 300.82956192 -387.1443634 298.12979126 C-387.75693597 297.52245537 -388.36950854 296.91511948 -389.00064391 296.28937948 C-391.05446023 294.25057967 -393.10105038 292.20467852 -395.14770508 290.15869141 C-396.61748655 288.69653001 -398.0876706 287.23477319 -399.55822754 285.77339172 C-403.55247655 281.80110267 -407.54011907 277.82224552 -411.52594209 273.84150362 C-414.01413907 271.35694679 -416.50362997 268.873694 -418.99356651 266.39088058 C-427.6732313 257.73571026 -436.34716041 249.07483421 -445.01635742 240.40917969 C-453.10937405 232.31980387 -461.21544312 224.2436695 -469.32752496 216.17341673 C-476.28414414 209.25142003 -483.23118059 202.31990352 -490.17085952 195.38092363 C-494.31927673 191.23330162 -498.47162573 187.0898041 -502.6337986 182.95598221 C-506.54437443 179.07145079 -510.44295964 175.17528319 -514.33246613 171.26965904 C-515.76529971 169.8350004 -517.20245341 168.4046421 -518.6441021 166.97884178 C-520.60462891 165.03856797 -522.54928522 163.0836884 -524.49055481 161.12417603 C-525.07049047 160.55744033 -525.65042613 159.99070464 -526.24793559 159.40679514 C-527.80723286 157.81359291 -527.80723286 157.81359291 -530 155 C-529.89675213 151.44615692 -528.16154476 149.7867104 -525.70532227 147.33300781 C-525.01112686 146.63258362 -524.31693146 145.93215942 -523.60169983 145.21051025 C-522.84755295 144.46557312 -522.09340607 143.72063599 -521.31640625 142.953125 C-520.54570297 142.18192322 -519.77499969 141.41072144 -518.98094177 140.6161499 C-517.35115657 138.98870458 -515.71767872 137.36495007 -514.08081055 135.74462891 C-511.56707867 133.25453562 -509.06697383 130.75134626 -506.56835938 128.24609375 C-504.98516663 126.66847601 -503.40120813 125.09162627 -501.81640625 123.515625 C-501.0642836 122.76259094 -500.31216095 122.00955688 -499.5372467 121.23370361 C-498.83989914 120.54588806 -498.14255157 119.85807251 -497.42407227 119.14941406 C-496.80975845 118.53970764 -496.19544464 117.93000122 -495.56251526 117.30181885 C-494 116 -494 116 -492 116 C-491.6596875 115.1646875 -491.6596875 115.1646875 -491.3125 114.3125 C-489.62449964 111.33840412 -487.53323483 109.27991135 -485 107 C-484.34 107 -483.68 107 -483 107 C-482.62875 106.13375 -482.62875 106.13375 -482.25 105.25 C-480.81700012 102.67060021 -479.21575324 100.93878408 -477 99 C-476.34 99 -475.68 99 -475 99 C-474.5978125 98.1028125 -474.5978125 98.1028125 -474.1875 97.1875 C-473.00082594 95.00152146 -471.90400887 93.58667406 -470 92 C-469.34 92 -468.68 92 -468 92 C-468 91.34 -468 90.68 -468 90 C-467.34 90 -466.68 90 -466 90 C-465.67 89.01 -465.34 88.02 -465 87 C-461.31784881 88.54683962 -458.97506137 90.77631245 -456.16617966 93.58772469 C-455.6921964 94.05940026 -455.21821313 94.53107583 -454.72986674 95.0170446 C-453.13680009 96.60480148 -451.55098984 98.19961384 -449.96502686 99.79446411 C-448.81530701 100.94331209 -447.66514789 102.09172059 -446.51458669 103.23972595 C-443.34947392 106.40035746 -440.19064659 109.56720693 -437.03278637 112.73508239 C-433.62811978 116.14836995 -430.21769184 119.55589222 -426.80795288 122.96411133 C-420.89956426 128.87145024 -414.99485431 134.78244577 -409.09261322 140.69592667 C-400.55891379 149.24586649 -392.01971007 157.79029132 -383.47914425 166.33337162 C-369.62345801 180.19343726 -355.77224582 194.05796518 -341.92382812 207.92529297 C-328.46978851 221.39768505 -315.01365406 234.8679791 -301.5546875 248.33544922 C-300.72535362 249.16530854 -299.89601975 249.99516787 -299.04155454 250.85017444 C-294.88109966 255.01323936 -290.72060347 259.17626298 -286.56008673 263.33926606 C-252.03364928 297.88644363 -217.51446425 332.44086085 -183 367 C-181.88028581 366.04583633 -180.76136387 365.09074291 -179.64277554 364.13525963 C-179.01959074 363.6034922 -178.39640595 363.07172477 -177.75433677 362.52384317 C-175.65845459 360.70332854 -173.67659879 358.79672202 -171.71704102 356.83056641 C-170.57665123 355.69006332 -170.57665123 355.69006332 -169.41322327 354.52651978 C-168.61814865 353.72628387 -167.82307404 352.92604797 -167.00390625 352.1015625 C-166.17036118 351.26660248 -165.3368161 350.43164246 -164.47801208 349.57138062 C-161.83713476 346.92494152 -159.19977104 344.27503241 -156.5625 341.625 C-154.76390351 339.82138357 -152.96507773 338.01799575 -151.16601562 336.21484375 C-146.77468752 331.81253739 -142.38623271 327.40738286 -138 323 C-143.09728873 316.83584687 -148.6566778 311.20806479 -154.31982422 305.56665039 C-155.35539385 304.5313633 -156.3907424 303.49585504 -157.42588806 302.46014404 C-160.21866428 299.66708248 -163.0144994 296.87710156 -165.81091833 294.08768773 C-168.73952579 291.16535761 -171.66527659 288.24017026 -174.59133911 285.31529236 C-180.12464934 279.78508257 -185.66050236 274.25742552 -191.19728673 268.73069423 C-197.50400577 262.43517638 -203.80786471 256.13679792 -210.11149192 249.83818448 C-223.07116111 236.88895052 -236.03439527 223.94329077 -249 211 C-244.46419608 205.59600884 -239.70598598 200.47844317 -234.79627991 195.41358948 C-233.58029866 194.15505099 -233.58029866 194.15505099 -232.33975214 192.87108749 C-230.10445099 190.55925986 -227.8671374 188.24940535 -225.6285392 185.94077075 C-224.19477239 184.46183355 -222.76174884 182.98217955 -221.32890129 181.50235176 C-203.1499307 162.73029979 -184.86060067 144.06687398 -166.52406025 125.44879499 C-163.52583274 122.40446437 -160.52841166 119.3593409 -157.53149414 116.3137207 C-156.63680069 115.40453035 -156.63680069 115.40453035 -155.72403263 114.47697251 C-146.09085531 104.68355959 -136.53045715 94.82203747 -126.99584276 84.93274821 C-117.17334867 74.74801898 -107.27640014 64.64016644 -97.30815214 54.59803051 C-91.18005293 48.41991406 -85.11476595 42.19177023 -79.12115132 35.88305562 C-74.99167685 31.548226 -70.79088763 27.29129847 -66.53083713 23.08477021 C-64.0819621 20.66253612 -61.69310444 18.22013049 -59.35284805 15.69037628 C-58.48791607 14.75910667 -57.62298409 13.82783707 -56.73184204 12.86834717 C-55.62941178 11.64890899 -55.62941178 11.64890899 -54.5047102 10.4048357 C-35.56016595 -6.08391977 -30.19666785 0 0 0 Z " transform="translate(1343,24)" style="fill: #12606B;"/><path d="M0 0 C228.36 0 456.72 0 692 0 C688.37066485 4.23422434 684.90927001 8.21650751 681.00201416 12.13169861 C680.30427891 12.83283219 680.30427891 12.83283219 679.592448 13.5481301 C678.05648486 15.09034791 676.51704767 16.62904668 674.97753906 18.16772461 C673.86641445 19.28184572 672.75549367 20.39617016 671.64476013 21.51068115 C668.64543308 24.51879423 665.64291493 27.52370195 662.63951206 30.52774501 C660.76312968 32.40484002 658.88746185 34.28264601 657.01204681 36.16070747 C650.47002613 42.71195783 643.92544941 49.26064202 637.37841797 55.80688477 C631.27187543 61.91282447 625.17095525 68.02434266 619.07259393 74.13845247 C613.83357825 79.3905159 608.59074279 84.63874513 603.34487891 89.88396841 C600.21265661 93.01593527 597.08202061 96.14944925 593.95520782 99.28681755 C591.02113656 102.23052531 588.08236283 105.16945354 585.13981819 108.10469055 C584.05848706 109.18497085 582.97887758 110.26697748 581.90108299 111.35078621 C580.43529052 112.8242303 578.96354247 114.29144789 577.49005127 115.75718689 C576.66638691 116.58139602 575.84272255 117.40560514 574.99409866 118.25479031 C573 120 573 120 571 120 C570.7421875 120.59683594 570.484375 121.19367188 570.21875 121.80859375 C568.89941578 124.18085817 567.6125068 125.38413125 565.5 127.0625 C563.06335088 129.00872186 561.77737879 130.33393182 560 133 C559.34 133 558.68 133 558 133 C558 133.66 558 134.32 558 135 C557.34 135 556.68 135 556 135 C555.79375 135.556875 555.5875 136.11375 555.375 136.6875 C554.03153247 138.94696811 552.94842298 139.9998656 550.9375 141.625 C547.99175287 143.67119397 547.99175287 143.67119397 547 146 C546.34 146 545.68 146 545 146 C545 146.66 545 147.32 545 148 C544.34 148 543.68 148 543 148 C542.75378906 148.58523437 542.50757813 149.17046875 542.25390625 149.7734375 C540.80626232 152.34402017 539.20757518 153.75455693 536.9375 155.625 C534.02124288 157.95485552 534.02124288 157.95485552 532 161 C531.34 161 530.68 161 530 161 C530 161.66 530 162.32 530 163 C529.34 163 528.68 163 528 163 C527.67 163.99 527.34 164.98 527 166 C526.34 166 525.68 166 525 166 C524.67 166.99 524.34 167.98 524 169 C517.25919575 163.47349666 511.1928871 157.30550441 505.0625 151.125 C503.98656273 150.04403726 502.91039269 148.96330617 501.83398438 147.8828125 C499.21996708 145.25787359 496.60911404 142.62981372 494 140 C515.08290513 97.83418973 559.66500004 72.33499996 593 39 C409.85 38.67 226.7 38.34 38 38 C38 221.15 38 404.3 38 593 C44.20147931 587.62249298 44.20147931 587.62249298 50.11303711 582.00721741 C51.17709526 580.94522125 51.17709526 580.94522125 52.26264954 579.86177063 C53.00999863 579.11082626 53.75734772 578.3598819 54.52734375 577.58618164 C55.7434156 576.37032883 55.7434156 576.37032883 56.98405457 575.12991333 C59.63758302 572.47569354 62.28756133 569.81795961 64.9375 567.16015625 C66.78672766 565.30906164 68.63617763 563.45818908 70.48583984 561.60752869 C74.84021024 557.25006458 79.1920278 552.89006035 83.54290771 548.52911133 C88.50109944 543.55969722 93.46217039 538.5931617 98.42347145 533.62685215 C108.61882819 523.42107547 118.8106094 513.21173321 129 503 C136.05834344 508.76919257 142.39204622 515.25877892 148.82006836 521.70654297 C150.1115099 522.9982669 151.40317231 524.28977004 152.69503784 525.58106995 C156.18642364 529.0721698 159.67472587 532.5663359 163.16246867 536.06107473 C166.81351152 539.71838497 170.46740196 543.37284803 174.12098694 547.02761841 C181.03241752 553.94215234 187.94129583 560.85923059 194.84925324 567.7772342 C202.71669268 575.65586575 210.58698472 583.53164507 218.45751369 591.40719008 C234.64151102 607.60162923 250.82193568 623.799634 267 640 C270.98719747 638.15315712 273.79894485 635.54078754 276.89453125 632.4765625 C277.44614426 631.93397797 277.99775726 631.39139343 278.56608582 630.83236694 C279.72604491 629.6868779 280.8832449 628.53858899 282.0378418 627.38769531 C283.81178562 625.62570956 285.60353036 623.88323584 287.39648438 622.140625 C288.52197714 621.02458982 289.64636557 619.9074396 290.76953125 618.7890625 C291.57871758 618.00917465 291.57871758 618.00917465 292.4042511 617.21353149 C294.07010288 615.58521199 294.07010288 615.58521199 296 613 C295.69878367 609.56221055 294.2409772 607.86751848 291.85177612 605.48428345 C290.84256859 604.46672218 290.84256859 604.46672218 289.81297302 603.42860413 C289.07015579 602.69500168 288.32733856 601.96139923 287.56201172 601.20556641 C286.39359993 600.03408806 286.39359993 600.03408806 285.20158386 598.83894348 C282.61815212 596.25249781 280.02411743 593.67697224 277.4296875 591.1015625 C275.6312636 589.30619652 273.83343013 587.51023892 272.03616333 585.7137146 C268.26269638 581.94485534 264.48456365 578.18077039 260.70214844 574.42089844 C255.86310576 569.61063991 251.03327581 564.79124221 246.20637321 559.96880531 C242.49075506 556.25675552 238.77171318 552.54814247 235.05194473 548.84025192 C233.2709715 547.06496227 231.49045679 545.28921251 229.71041489 543.51298904 C227.21430784 541.0237923 224.71485976 538.53800121 222.21435547 536.05322266 C221.48368362 535.32366867 220.75301178 534.59411469 220.00019836 533.842453 C216.26996659 530.14310338 212.47889945 526.59943409 208.43815804 523.24033165 C206.5677382 521.62719814 205.00102536 519.84586304 203.4375 517.9375 C200.55896738 514.5449437 197.42749507 511.84409166 194 509 C193.00032005 507.87201889 192.02189336 506.72493958 191.0625 505.5625 C189.03072147 503.10632909 186.95965912 501.02719158 184.5 499 C181.45940441 496.49284223 179.03888788 493.76110989 176.5390625 490.7265625 C174.42425228 488.35411043 172.02804152 486.41422164 169.58203125 484.39453125 C168 483 168 483 166.0625 480.5625 C164.18087559 478.22472422 162.3374044 476.49786643 160.0625 474.5625 C156.62924885 471.63506854 153.89108628 468.46930354 151 465 C149.80338548 463.92021794 148.58723307 462.86188411 147.35742188 461.82006836 C142.96977961 458.02401202 138.86727307 453.99495294 134.78125 449.87890625 C134.03790405 449.13414536 133.29455811 448.38938446 132.52868652 447.62205505 C130.18340699 445.27123255 127.84165164 442.91693569 125.5 440.5625 C123.89867039 438.95614801 122.29711002 437.35002603 120.6953125 435.74414062 C116.79420527 431.83208015 112.8959758 427.91717048 109 424 C110.72888935 420.30995882 112.82806951 417.91391826 115.71875 415.015625 C117.11673828 413.61376953 117.11673828 413.61376953 118.54296875 412.18359375 C119.02813965 411.7026123 119.51331055 411.22163086 120.01318359 410.72607422 C121.50206339 409.24795152 122.97991651 407.75940089 124.45703125 406.26953125 C125.38902344 405.34011719 126.32101562 404.41070312 127.28125 403.453125 C128.13783203 402.59879883 128.99441406 401.74447266 129.87695312 400.86425781 C132 399 132 399 134 399 C134.2578125 398.41734375 134.515625 397.8346875 134.78125 397.234375 C136.09834017 394.8197097 137.55088384 393.18259823 139.5 391.25 C140.1084375 390.63640625 140.716875 390.0228125 141.34375 389.390625 C143 388 143 388 145 388 C145 387.34 145 386.68 145 386 C145.66 386 146.32 386 147 386 C147.2371875 385.43796875 147.474375 384.8759375 147.71875 384.296875 C149.28947697 381.48105958 151.21471464 379.52044584 153.5 377.25 C154.2940625 376.45078125 155.088125 375.6515625 155.90625 374.828125 C158 373 158 373 160 373 C160.3403125 372.1646875 160.3403125 372.1646875 160.6875 371.3125 C162.37550036 368.33840412 164.46676517 366.27991135 167 364 C167.66 364 168.32 364 169 364 C169 363.34 169 362.68 169 362 C169.66 362 170.32 362 171 362 C171.24621094 361.41476562 171.49242187 360.82953125 171.74609375 360.2265625 C173.19373768 357.65597983 174.79242482 356.24544307 177.0625 354.375 C179.97875712 352.04514448 179.97875712 352.04514448 182 349 C182.66 349 183.32 349 184 349 C184 348.34 184 347.68 184 347 C184.99 346.67 185.98 346.34 187 346 C263.56 422.56 340.12 499.12 419 578 C422.7654902 576.1172549 424.64643414 574.58807351 427.546875 571.6484375 C428.39121094 570.79765625 429.23554687 569.946875 430.10546875 569.0703125 C430.97816406 568.18085937 431.85085938 567.29140625 432.75 566.375 C434.08224609 565.02921875 434.08224609 565.02921875 435.44140625 563.65625 C437.63216969 561.44192996 439.81812763 559.22307565 442 557 C438.1800616 552.43683204 434.23210828 548.08788647 430.0142765 543.89122868 C429.15295157 543.02817297 429.15295157 543.02817297 428.27422613 542.1476818 C426.35938082 540.23020044 424.44100541 538.31629162 422.52261353 536.40235901 C421.13128885 535.01059802 419.74018405 533.61861719 418.34927976 532.22643608 C414.53415064 528.40907391 410.71591547 524.59483185 406.89716172 520.7810961 C402.77680823 516.66506398 398.65934806 512.54613932 394.54153442 508.42756653 C387.40925358 501.29476152 380.27514514 494.16378867 373.13978958 487.03405952 C362.82328453 476.72568402 352.50954238 466.41454738 342.19647495 456.10273289 C325.4638754 439.37223262 308.72895957 422.64405102 291.99267578 405.91723633 C275.73564078 389.66938864 259.47965866 373.42048873 243.22509766 357.17016602 C242.72388403 356.66908391 242.2226704 356.16800181 241.70626848 355.6517354 C236.67278436 350.61956983 231.63932161 345.58738289 226.60587451 340.55518029 C216.35255698 330.30439884 206.09909688 320.05375999 195.84555054 309.8032074 C195.37413 309.33192415 194.90270946 308.8606409 194.41700345 308.37507634 C162.94705755 276.91432799 131.47377825 245.45691436 100 214 C101.3254024 211.25790847 102.54595004 209.20519262 104.7081604 207.05133057 C105.25782974 206.4989119 105.80749908 205.94649323 106.37382507 205.37733459 C107.27473625 204.48720924 107.27473625 204.48720924 108.19384766 203.57910156 C109.14525887 202.62725227 109.14525887 202.62725227 110.1158905 201.65617371 C112.21057478 199.56288118 114.31225102 197.4767592 116.4140625 195.390625 C117.8689557 193.93946247 119.32340756 192.48785733 120.7774353 191.03582764 C124.60350926 187.21738582 128.43555162 183.40498851 132.26885986 179.59381104 C136.18025204 175.70288621 140.08598085 171.80628572 143.9921875 167.91015625 C151.65592027 160.26786601 159.32596905 152.63194826 167 145 C169.99022092 146.34414767 172.08154372 147.83062977 174.39702225 150.14254665 C175.05289802 150.79259023 175.70877379 151.44263381 176.38452458 152.11237568 C177.45262211 153.18614219 177.45262211 153.18614219 178.54229736 154.28160095 C179.3052558 155.04073384 180.06821424 155.79986673 180.85429263 156.58200365 C183.41709598 159.13446385 185.97266784 161.69404356 188.52832031 164.25366211 C190.36099141 166.08198756 192.19408055 167.90989405 194.02755737 169.7374115 C198.49379331 174.19089282 202.95452951 178.64984377 207.41322187 183.11087625 C211.03567533 186.73511164 214.65988803 190.35757864 218.28536224 193.97879219 C218.80103747 194.49387223 219.31671271 195.00895227 219.84801446 195.5396408 C220.89552912 196.58594374 221.94304499 197.63224548 222.99056205 198.67854602 C232.81481242 208.49191858 242.63253214 218.31180461 252.44829592 228.13366473 C261.43622103 237.12676316 270.43234079 246.11161282 279.43234792 255.09261852 C288.66811413 264.30903437 297.89833696 273.53096797 307.12255168 282.75894552 C312.30357298 287.94188264 317.48679337 293.12257457 322.6758194 298.2974987 C327.55169333 303.16025581 332.41974122 308.03072843 337.28250504 312.90659523 C339.07304597 314.69951452 340.86617576 316.48985247 342.66200638 318.27747345 C345.10351414 320.70861881 347.53569885 323.14871462 349.96563721 325.59141541 C350.68662511 326.30502902 351.40761302 327.01864264 352.15044904 327.75388092 C352.79589382 328.40653224 353.4413386 329.05918357 354.10634232 329.73161221 C354.66919788 330.29441275 355.23205344 330.8572133 355.81196523 331.4370684 C357 333 357 333 357 336 C355.70703125 337.3671875 355.70703125 337.3671875 353.8125 338.875 C349.64465683 342.35195745 345.8189141 346.08781764 342 349.9375 C341.4119458 350.52966309 340.8238916 351.12182617 340.21801758 351.73193359 C338.80999293 353.15262444 337.40470318 354.57602497 336 356 C331.13305585 351.94359888 326.55201256 347.69388023 322.08399963 343.20425415 C321.09497561 342.21651176 321.09497561 342.21651176 320.0859713 341.20881498 C317.89420965 339.01869034 315.70602311 336.82502952 313.51782227 334.63134766 C311.94067002 333.05391312 310.36329712 331.47669917 308.78572083 329.89968872 C304.51543469 325.62968896 300.24823425 321.35661761 295.98158765 317.08298159 C291.51775182 312.61288561 287.05107539 308.14562988 282.58470154 303.67807007 C275.092371 296.18298668 267.60178738 288.68616098 260.11254883 281.18798828 C252.40116065 273.46741057 244.68871506 265.74789169 236.97485352 258.02978516 C236.49877329 257.5534422 236.02269306 257.07709925 235.53218616 256.58632167 C233.14364644 254.19647684 230.75508601 251.80665272 228.36651528 249.41683888 C208.57446483 229.61443436 188.7860786 209.80837132 169 190 C165.37916872 191.69854037 163.05744646 193.71104782 160.234375 196.5703125 C159.34492187 197.46621094 158.45546875 198.36210937 157.5390625 199.28515625 C156.15847656 200.69087891 156.15847656 200.69087891 154.75 202.125 C153.80515144 203.07988637 152.85984367 204.03431859 151.9140625 204.98828125 C149.60481662 207.32109087 147.30036797 209.65844086 145 212 C146.61876455 216.06053647 149.5079747 218.78371442 152.55600166 221.80209732 C153.1323564 222.38075975 153.70871115 222.95942218 154.30253118 223.55561984 C156.24636824 225.50477531 158.19729175 227.44668085 160.14822388 229.38873291 C161.55280952 230.79419024 162.95695578 232.2000868 164.36069858 233.60638595 C168.22822359 237.4783957 172.10197864 241.34412035 175.97674775 245.20887899 C180.15077612 249.37429139 184.31904471 253.5454603 188.48800659 257.71594238 C196.1859903 265.41504459 203.8884169 273.1096838 211.59296376 280.80221779 C218.70810499 287.90635936 225.8209736 295.01276759 232.93163681 302.1213913 C233.63846745 302.82801572 233.63846745 302.82801572 234.35957749 303.54891538 C236.75260421 305.94126544 239.14559399 308.33365245 241.53856955 310.72605368 C258.4932326 327.67651461 275.45252908 344.62233271 292.41455078 361.56542969 C308.89411076 378.02662441 325.37157132 394.48991598 341.84619141 410.95605469 C342.60776534 411.71723405 342.60776534 411.71723405 343.38472461 412.49379076 C348.48336022 417.58978936 353.58195315 422.68583066 358.68051481 427.78190325 C369.06710719 438.16342304 379.45398444 448.54465779 389.84103394 458.92572021 C390.31862559 459.40303729 390.79621724 459.88035436 391.28828137 460.37213559 C423.18741634 492.25286559 455.09321231 524.12692918 487 556 C486.06369841 557.10270476 485.12588565 558.20412649 484.18745995 559.30502415 C483.6653822 559.91851925 483.14330445 560.53201436 482.60540617 561.16410023 C480.12688169 563.99847486 477.48129401 566.65002712 474.81103516 569.30249023 C474.22494476 569.88872665 473.63885437 570.47496307 473.03500366 571.07896423 C471.12205396 572.99122444 469.20560087 574.89993086 467.2890625 576.80859375 C465.95220405 578.14358459 464.61556808 579.47879827 463.27914429 580.81422424 C459.77974021 584.30983017 456.2773423 587.80242114 452.77429199 591.29437256 C449.19275135 594.8656407 445.61407844 598.43978002 442.03515625 602.01367188 C435.0262261 609.01191241 428.01412676 616.00696815 421 623 C419.87654087 622.04350912 418.75399498 621.08594551 417.63183594 620.12792969 C417.00662048 619.59480164 416.38140503 619.06167358 415.73724365 618.51239014 C413.81562676 616.83949041 412.01731758 615.08464396 410.25 613.25 C408.19797462 611.12126339 406.49894537 609.66596358 404 608 C404 607.01 404 606.02 404 605 C403.34 605 402.68 605 402 605 C402 604.34 402 603.68 402 603 C401.41734375 602.73058594 400.8346875 602.46117187 400.234375 602.18359375 C397.98891824 600.99412977 396.19305156 599.69416509 394.25 598.0625 C393.63640625 597.55847656 393.0228125 597.05445313 392.390625 596.53515625 C391 595 391 595 391 592 C390.34 592 389.68 592 389 592 C389 591.34 389 590.68 389 590 C388.1181604 589.60035034 388.1181604 589.60035034 387.21850586 589.19262695 C384.95306781 587.97477014 383.36797399 586.68028892 381.50390625 584.91796875 C380.86259766 584.31533203 380.22128906 583.71269531 379.56054688 583.09179688 C378.57151367 582.14916992 378.57151367 582.14916992 377.5625 581.1875 C376.90701172 580.57068359 376.25152344 579.95386719 375.57617188 579.31835938 C371.99185111 575.93536455 368.47348526 572.49711441 365 569 C364.26136719 568.28457031 363.52273438 567.56914063 362.76171875 566.83203125 C362.07722656 566.16558594 361.39273437 565.49914062 360.6875 564.8125 C359.99011719 564.13832031 359.29273438 563.46414063 358.57421875 562.76953125 C357 561 357 561 357 559 C356.43796875 558.7628125 355.8759375 558.525625 355.296875 558.28125 C352.48105958 556.71052303 350.52044584 554.78528536 348.25 552.5 C347.45078125 551.7059375 346.6515625 550.911875 345.828125 550.09375 C344 548 344 548 344 546 C343.43796875 545.7628125 342.8759375 545.525625 342.296875 545.28125 C339.48105958 543.71052303 337.52044584 541.78528536 335.25 539.5 C334.45078125 538.7059375 333.6515625 537.911875 332.828125 537.09375 C331 535 331 535 331 533 C330.43796875 532.7628125 329.8759375 532.525625 329.296875 532.28125 C326.48105958 530.71052303 324.52044584 528.78528536 322.25 526.5 C321.45078125 525.7059375 320.6515625 524.911875 319.828125 524.09375 C318 522 318 522 318 520 C317.43796875 519.7628125 316.8759375 519.525625 316.296875 519.28125 C313.48105958 517.71052303 311.52044584 515.78528536 309.25 513.5 C308.45078125 512.7059375 307.6515625 511.911875 306.828125 511.09375 C305 509 305 509 305 507 C304.41734375 506.7421875 303.8346875 506.484375 303.234375 506.21875 C300.8197097 504.90165983 299.18259823 503.44911616 297.25 501.5 C296.63640625 500.8915625 296.0228125 500.283125 295.390625 499.65625 C294 498 294 498 294 496 C293.45859375 495.7834375 292.9171875 495.566875 292.359375 495.34375 C289.18354656 493.53500003 286.79271919 491.08276201 284.25 488.5 C283.74339844 488.00113281 283.23679687 487.50226563 282.71484375 486.98828125 C279 483.25341139 279 483.25341139 279 481 C278.41734375 480.7421875 277.8346875 480.484375 277.234375 480.21875 C274.8197097 478.90165983 273.18259823 477.44911616 271.25 475.5 C270.63640625 474.8915625 270.0228125 474.283125 269.390625 473.65625 C268 472 268 472 268 470 C267.41734375 469.7421875 266.8346875 469.484375 266.234375 469.21875 C263.8197097 467.90165983 262.18259823 466.44911616 260.25 464.5 C259.63640625 463.8915625 259.0228125 463.283125 258.390625 462.65625 C257 461 257 461 257 459 C256.47243103 458.79709351 255.94486206 458.59418701 255.40130615 458.38513184 C251.95789795 456.39889017 249.35970372 453.63746286 246.57910156 450.83789062 C245.62725227 449.89129829 245.62725227 449.89129829 244.65617371 448.92558289 C242.56260156 446.8408052 240.47641993 444.74880658 238.390625 442.65625 C236.93931862 441.20629059 235.48771544 439.7566282 234.03582764 438.30725098 C230.99636871 435.27073993 227.96055557 432.23064194 224.92724609 429.18798828 C221.03090318 425.28023079 217.12562439 421.38154643 213.21759415 417.48548126 C210.22010184 414.49519922 207.22736879 411.50019076 204.23607635 408.50370789 C202.79737086 407.06366464 201.35716835 405.62511547 199.91547394 404.18806458 C197.90655515 402.18419948 195.904117 400.17407966 193.90332031 398.16210938 C193.30180649 397.56464401 192.70029266 396.96717865 192.08055115 396.35160828 C188 392.22853043 188 392.22853043 188 390 C183.25269748 392.48519135 179.88247288 395.85920535 176.16796875 399.63671875 C175.53135818 400.27615921 174.89474762 400.91559967 174.23884583 401.57441711 C172.21696667 403.60744499 170.20217332 405.64733362 168.1875 407.6875 C166.81361367 409.07142297 165.43926961 410.45489168 164.06445312 411.83789062 C160.70431133 415.22002237 157.35050495 418.60832238 154 422 C155.28624147 424.8245622 156.6274873 426.8760838 158.82296181 429.06347084 C159.40170417 429.64496191 159.98044654 430.22645297 160.57672656 430.82556498 C161.21290734 431.45455584 161.84908813 432.08354671 162.50454712 432.7315979 C163.18004211 433.40739061 163.8555371 434.08318331 164.55150163 434.77945459 C166.82079988 437.04736159 169.09716929 439.30803636 171.37353516 441.56884766 C172.99986846 443.19134359 174.6257477 444.81429476 176.25120544 446.43766785 C179.75421864 449.93435388 183.26031653 453.4279071 186.76878738 456.91911697 C192.31080912 462.43414677 197.84524157 467.95674973 203.37850952 473.4805603 C211.13166909 481.21905034 218.88760013 488.95474971 226.64648438 496.6875 C227.13880481 497.17816481 227.63112524 497.66882962 228.13836448 498.17436306 C231.63381172 501.65800699 235.12939167 505.14151773 238.625 508.625 C242.62151318 512.60765317 246.61796296 516.59036994 250.61425781 520.57324219 C251.10658664 521.06391476 251.59891546 521.55458733 252.10616334 522.06012876 C260.30460939 530.23123679 268.49911216 538.40628666 276.69090307 546.58406675 C282.19758696 552.08075408 287.70911901 557.57252043 293.22433877 563.06064248 C296.64611669 566.46755907 300.06379758 569.87856249 303.48034859 573.29071999 C305.07179632 574.87840639 306.66498029 576.46435453 308.25997353 578.04847908 C310.42771077 580.20190202 312.58930857 582.36130132 314.74942017 584.52236938 C315.3900624 585.15582169 316.03070462 585.789274 316.69076025 586.44192183 C321 590.77181415 321 590.77181415 321 593 C321.59941406 593.09796875 322.19882812 593.1959375 322.81640625 593.296875 C325.44261555 594.14252379 326.25030229 595.10010818 327.9375 597.25 C330.46616955 600.36318613 333.12364183 603.1973946 336 606 C337.66666667 607.66666667 339.33333333 609.33333333 341 611 C339.70005304 613.86356097 338.32621927 615.92226181 336.10202026 618.13848877 C335.51028015 618.73297821 334.91854004 619.32746765 334.30886841 619.93997192 C333.33782669 620.90022781 333.33782669 620.90022781 332.34716797 621.87988281 C331.66412598 622.56321686 330.98108398 623.2465509 330.27734375 623.95059204 C328.02033362 626.20620976 325.7563237 628.45466222 323.4921875 630.703125 C321.92519314 632.26638892 320.35864001 633.83009523 318.79251099 635.39422607 C314.67051858 639.50858445 310.54255516 643.6169012 306.41333008 647.72399902 C302.20032416 651.91654166 297.99297842 656.11475588 293.78515625 660.3125 C285.5289751 668.54723528 277.26647643 676.77560065 269 685 C266 684 266 684 264.3125 681.875 C262.32361614 679.40233358 260.46293963 677.59745916 258.0625 675.5625 C254.62924885 672.63506854 251.89108628 669.46930354 249 666 C247.00911668 664.16822416 244.96710939 662.40940466 242.91015625 660.65234375 C240.48028176 658.55042778 238.24244553 656.29994413 236 654 C235.45601562 653.46632813 234.91203125 652.93265625 234.3515625 652.3828125 C231.44119215 649.52327831 228.66007083 646.64814291 226.0625 643.5 C223.28701071 640.18277083 220.16234117 637.47710999 216.87109375 634.68359375 C214.29045406 632.36155678 212.2204056 629.66448672 210 627 C207.92838405 625.15373159 205.82003308 623.36976389 203.671875 621.61328125 C202 620 202 620 201 617 C200.01 616.67 199.02 616.34 198 616 C194.97786326 613.22970799 192.34509203 610.2426763 189.6875 607.125 C186.63884082 603.5960269 183.36108654 600.54403486 179.796875 597.54296875 C178.1018998 596.08750092 176.48370455 594.67145728 175 593 C175 592.34 175 591.68 175 591 C174.43152344 590.75894531 173.86304688 590.51789062 173.27734375 590.26953125 C170.55211092 588.75031912 168.73309661 586.92581019 166.5625 584.6875 C165.77101563 583.87796875 164.97953125 583.0684375 164.1640625 582.234375 C163.44992187 581.49703125 162.73578125 580.7596875 162 580 C161.154375 579.154375 160.30875 578.30875 159.4375 577.4375 C152.29166667 570.29166667 145.14583333 563.14583333 138 556 C134.05803093 557.59460772 131.41101535 560.3174008 128.47651672 563.28970337 C127.93069213 563.83452468 127.38486753 564.379346 126.82250279 564.94067705 C124.99447711 566.76774999 123.17369596 568.60187522 121.3527832 570.43603516 C120.04392464 571.74709483 118.73461786 573.05770717 117.42489624 574.36790466 C114.60586366 577.18987111 111.79001753 580.01496607 108.9765873 582.84251785 C104.53257478 587.30876965 100.08150944 591.76794703 95.62944031 596.22616577 C88.59335375 603.27363485 81.56195713 610.32576193 74.53258055 617.37992322 C61.93145635 630.02539394 49.32471077 642.66525473 36.71279019 655.29995763 C32.28313266 659.73804896 27.85629929 664.17893322 23.43167651 668.62204385 C20.68639507 671.37792723 17.93911778 674.13181444 15.19132614 676.88519478 C13.91209851 678.16790877 12.63374408 679.45149423 11.35630226 680.73598671 C9.62064157 682.48102016 7.88199012 684.22301666 6.14253235 685.96426392 C5.63067755 686.4803958 5.11882274 686.99652768 4.59145719 687.52829993 C1.11406446 691 1.11406446 691 0 691 C0 462.97 0 234.94 0 0 Z " transform="translate(529,24)" style="fill: #13626C;"/><path d="M0 0 C7.26 0 14.52 0 22 0 C28.81427335 11.83979995 35.53747258 23.72068291 42.125 35.6875 C42.46964294 36.31357147 42.81428589 36.93964294 43.16937256 37.58468628 C44.5287087 40.05459455 45.88768364 42.52470101 47.24612427 44.99510193 C53.0873925 55.61682417 58.99046384 66.20373422 64.91699219 76.77807617 C67.30526806 81.03989058 69.69094068 85.30316039 72.07666016 89.56640625 C73.41334916 91.95269645 74.7513631 94.33819727 76.09130859 96.72265625 C77.85023311 99.85286566 79.60497417 102.98538794 81.35708618 106.11941528 C82.03311926 107.32687055 82.71066 108.533483 83.38973999 109.73922729 C84.33405307 111.41640177 85.27263623 113.09679856 86.2109375 114.77734375 C86.75024902 115.73890381 87.28956055 116.70046387 87.84521484 117.69116211 C89 120 89 120 89 122 C81.74 122 74.48 122 67 122 C62.3125 113.0625 62.3125 113.0625 60.8684082 110.30493164 C58.30173219 105.4201032 55.66458548 100.590326 52.90698242 95.81030273 C52 94 52 94 52 92 C24.61 92 -2.78 92 -31 92 C-31.66 93.65 -32.32 95.3 -33 97 C-33.91008305 98.90987113 -34.83989888 100.81041599 -35.78515625 102.703125 C-36.31560547 103.7653125 -36.84605469 104.8275 -37.39257812 105.921875 C-37.94365234 107.02015625 -38.49472656 108.1184375 -39.0625 109.25 C-39.61744141 110.36375 -40.17238281 111.4775 -40.74414062 112.625 C-41.27330078 113.68203125 -41.80246094 114.7390625 -42.34765625 115.828125 C-42.83242432 116.7965332 -43.31719238 117.76494141 -43.81665039 118.76269531 C-45 121 -45 121 -46 122 C-47.4887186 122.08669432 -48.981445 122.10703494 -50.47265625 122.09765625 C-51.37177734 122.09443359 -52.27089844 122.09121094 -53.19726562 122.08789062 C-54.61555664 122.07532227 -54.61555664 122.07532227 -56.0625 122.0625 C-57.01189453 122.05798828 -57.96128906 122.05347656 -58.93945312 122.04882812 C-61.29303065 122.0370011 -63.64648477 122.02052025 -66 122 C-64.27464143 117.17858133 -61.76782605 112.87512782 -59.25 108.4375 C-56.44436078 103.44721099 -53.67545291 98.47100787 -51.1875 93.3125 C-48.2867468 87.37951469 -45.01889774 81.67255587 -41.75 75.9375 C-37.69832428 68.82702669 -33.71845438 61.69585103 -29.9375 54.4375 C-20.36307165 36.06662623 -10.24169443 18.00555956 0 0 Z " transform="translate(787,902)" style="fill: #4EA287;"/><path d="M0 0 C7.59 0 15.18 0 23 0 C23.87140625 1.63324219 24.7428125 3.26648438 25.640625 4.94921875 C31.72601814 16.32210413 37.87175312 27.64285487 44.31958008 38.81567383 C48.61900864 46.28451226 52.7870533 53.8228435 56.9375 61.375 C61.84378168 70.30100674 66.78465905 79.20410352 71.8125 88.0625 C75.99569137 95.43790559 80.15046113 102.82771246 84.25 110.25 C84.94959839 111.51082397 84.94959839 111.51082397 85.66333008 112.79711914 C86.0889624 113.57047607 86.51459473 114.34383301 86.953125 115.140625 C87.32598633 115.81641602 87.69884766 116.49220703 88.08300781 117.18847656 C89 119 89 119 90 122 C82.41 122 74.82 122 67 122 C63.4375 114.8125 63.4375 114.8125 62.36499023 112.63989258 C59.05864866 106.0003427 55.52396979 99.54451532 52 93 C24.94 93 -2.12 93 -30 93 C-37.63638547 107.43854542 -37.63638547 107.43854542 -45 122 C-51.6 122 -58.2 122 -65 122 C-63.458631 117.37589299 -61.92853817 113.71820059 -59.65625 109.484375 C-59.33114944 108.87592743 -59.00604889 108.26747986 -58.6710968 107.64059448 C-57.61879857 105.67448093 -56.5596276 103.71217165 -55.5 101.75 C-54.76626439 100.38343809 -54.03278618 99.01673795 -53.29956055 97.64990234 C-49.14254162 89.9128967 -44.93814578 82.20370906 -40.64501953 74.54125977 C-37.33007648 68.62113081 -34.09740749 62.65843152 -30.875 56.6875 C-25.86553029 47.40772431 -20.79195273 38.16520331 -15.6875 28.9375 C-10.3755134 19.3342333 -5.12024085 9.70712328 0 0 Z " transform="translate(1244,902)" style="fill: #4EA287;"/><path d="M0 0 C7.59 0 15.18 0 23 0 C24.464375 2.805 25.92875 5.61 27.4375 8.5 C31.71098159 16.64095809 36.13960972 24.67660768 40.68066406 32.67041016 C43.34517607 37.37521651 45.9835861 42.09470001 48.625 46.8125 C49.22038574 47.87581543 49.81577148 48.93913086 50.42919922 50.03466797 C58.81076023 65.01272475 67.15571486 80.01125068 75.43359375 95.046875 C75.80083557 95.71366272 76.16807739 96.38045044 76.54644775 97.06744385 C78.33212828 100.30990278 80.1163537 103.55314624 81.89794922 106.79785156 C82.54259736 107.96942628 83.18728908 109.14097702 83.83203125 110.3125 C84.39639893 111.33988281 84.9607666 112.36726562 85.54223633 113.42578125 C86.61968361 115.32841132 87.78713387 117.18070081 89 119 C89 119.99 89 120.98 89 122 C81.74 122 74.48 122 67 122 C65.63875 119.4425 64.2775 116.885 62.875 114.25 C62.45976074 113.47172852 62.04452148 112.69345703 61.61669922 111.89160156 C58.29983335 105.64216877 55.16750156 99.33500312 52 93 C10.915 92.505 10.915 92.505 -31 92 C-31.66 93.98 -32.32 95.96 -33 98 C-33.88879581 99.87990976 -34.81879083 101.74079347 -35.78515625 103.58203125 C-36.31560547 104.59587891 -36.84605469 105.60972656 -37.39257812 106.65429688 C-37.94365234 107.69650391 -38.49472656 108.73871094 -39.0625 109.8125 C-39.61744141 110.87404297 -40.17238281 111.93558594 -40.74414062 113.02929688 C-44.85450008 120.85450008 -44.85450008 120.85450008 -46 122 C-47.4887186 122.08669432 -48.981445 122.10703494 -50.47265625 122.09765625 C-51.37177734 122.09443359 -52.27089844 122.09121094 -53.19726562 122.08789062 C-54.61555664 122.07532227 -54.61555664 122.07532227 -56.0625 122.0625 C-57.01189453 122.05798828 -57.96128906 122.05347656 -58.93945312 122.04882812 C-61.29303065 122.0370011 -63.64648477 122.02052025 -66 122 C-64.7609442 118.77944108 -63.40281358 115.74255613 -61.7421875 112.71875 C-61.2894043 111.89117188 -60.83662109 111.06359375 -60.37011719 110.2109375 C-59.87672852 109.31632813 -59.38333984 108.42171875 -58.875 107.5 C-58.35583008 106.55382812 -57.83666016 105.60765625 -57.30175781 104.6328125 C-55.53751202 101.4202128 -53.76871973 98.21013848 -52 95 C-50.9898789 93.16273539 -49.98024719 91.32520233 -48.97061157 89.4876709 C-47.57511242 86.94861442 -46.17820057 84.41033742 -44.78082275 81.87231445 C-44.10622565 80.64702339 -43.43185937 79.4216052 -42.75775146 78.19604492 C-38.51896524 70.49322146 -34.21016315 62.83931529 -29.80712891 55.22949219 C-27.97169224 51.94941164 -26.28025382 48.62413146 -24.625 45.25 C-20.81493558 37.50919039 -16.60964227 30.01128577 -12.38964844 22.48828125 C-9.8623259 17.96289979 -7.36992919 13.41829519 -4.875 8.875 C-2.461875 4.481875 -2.461875 4.481875 0 0 Z " transform="translate(958,902)" style="fill: #4EA287;"/><path d="M0 0 C1.75058106 -0.00202542 3.5011613 -0.00494074 5.2517395 -0.00869751 C8.90798024 -0.01310119 12.56399996 -0.00675483 16.22021484 0.00732422 C20.87557074 0.02438946 25.53040659 0.01457935 30.18574333 -0.00339317 C33.79773781 -0.01430595 37.40961187 -0.01075014 41.02161026 -0.0030098 C42.73658436 -0.0010271 44.45156986 -0.0033981 46.16653061 -0.01044846 C69.66468637 -0.0858566 69.66468637 -0.0858566 77.5078125 5.5859375 C80.45637926 8.98812992 81.75895583 12.10536263 82.9453125 16.3984375 C83.13351562 17.03136719 83.32171875 17.66429687 83.515625 18.31640625 C84.02926609 20.80523078 84.04122326 23.10921953 84.0078125 25.6484375 C83.99878906 26.54046875 83.98976563 27.4325 83.98046875 28.3515625 C83.96886719 29.02703125 83.95726562 29.7025 83.9453125 30.3984375 C81.5089936 31.06969879 79.07142367 31.73560104 76.6328125 32.3984375 C75.94251953 32.58921875 75.25222656 32.78 74.54101562 32.9765625 C71.58743301 33.77559934 69.01972031 34.3984375 65.9453125 34.3984375 C65.9453125 28.7884375 65.9453125 23.1784375 65.9453125 17.3984375 C37.5653125 17.3984375 9.1853125 17.3984375 -20.0546875 17.3984375 C-20.0546875 28.6184375 -20.0546875 39.8384375 -20.0546875 51.3984375 C-17.49138672 51.38796387 -14.92808594 51.37749023 -12.28710938 51.36669922 C-3.80147718 51.33350405 4.68415794 51.31144568 13.16983795 51.29481316 C18.31280462 51.28439266 23.45570455 51.27026513 28.59863281 51.24755859 C33.56530917 51.22576839 38.53192148 51.21385584 43.49864197 51.20868301 C45.38997912 51.20499834 47.28131292 51.19780315 49.17262268 51.18697739 C51.82935053 51.17238034 54.48581639 51.17046298 57.14257812 51.17138672 C57.91797943 51.16419617 58.69338074 51.15700562 59.49227905 51.14959717 C67.10312116 51.17808109 73.94579202 52.35338619 79.9453125 57.3984375 C86.09832694 65.30103113 85.13173025 75.19050561 85.13061523 84.73168945 C85.13280337 86.82719192 85.1510089 88.9221683 85.16992188 91.01757812 C85.25249213 110.45701634 85.25249213 110.45701634 78.9453125 117.3984375 C71.83361847 121.7933046 64.66988341 122.54793866 56.45825195 122.55957031 C55.61527054 122.56453522 54.77228912 122.56950012 53.90376282 122.57461548 C51.12203139 122.58918862 48.34035704 122.59603178 45.55859375 122.6015625 C43.61671447 122.60731888 41.6748352 122.61307655 39.73295593 122.61883545 C35.66189307 122.62933231 31.59084987 122.63518327 27.51977539 122.63867188 C22.3226988 122.64414728 17.12588542 122.66816056 11.92889118 122.69664383 C7.91638957 122.71534055 3.9039504 122.72047959 -0.10859108 122.72200775 C-2.02339933 122.72502002 -3.93820686 122.73299995 -5.85297203 122.74619293 C-28.36107925 122.89018058 -28.36107925 122.89018058 -36.4921875 117.3359375 C-39.95182957 113.37000635 -40.91215617 109.45352215 -42.0546875 104.3984375 C-42.24289062 103.74488281 -42.43109375 103.09132813 -42.625 102.41796875 C-43.14954546 99.95260511 -43.15032123 97.66660088 -43.1171875 95.1484375 C-43.10816406 94.25640625 -43.09914063 93.364375 -43.08984375 92.4453125 C-43.07824219 91.76984375 -43.06664062 91.094375 -43.0546875 90.3984375 C-36.67932848 87.94993005 -30.86859291 86.87828999 -24.0546875 86.3984375 C-24.0546875 92.6684375 -24.0546875 98.9384375 -24.0546875 105.3984375 C5.9753125 105.3984375 36.0053125 105.3984375 66.9453125 105.3984375 C66.9453125 93.1884375 66.9453125 80.9784375 66.9453125 68.3984375 C64.33189941 68.41938477 61.71848633 68.44033203 59.02587891 68.46191406 C50.36468864 68.52836828 41.70348673 68.57244631 33.04210854 68.60568619 C27.79372226 68.62650841 22.54559851 68.65472767 17.29736328 68.70019531 C12.22691666 68.74384485 7.15672163 68.76761491 2.08610153 68.77794647 C0.1573122 68.78530365 -1.77146429 68.79967014 -3.70014572 68.82135773 C-25.37912719 69.05530749 -25.37912719 69.05530749 -33.4921875 62.3984375 C-38.23002211 53.30179505 -38.52766815 43.32189723 -38.4296875 33.2734375 C-38.44128906 32.07589844 -38.45289063 30.87835937 -38.46484375 29.64453125 C-38.44020691 22.14671873 -38.39708976 13.8015283 -33.6652832 7.56811523 C-24.59673754 -1.14314058 -11.67499471 -0.04786574 0 0 Z " transform="translate(598.0546875,901.6015625)" style="fill: #4DA287;"/><path d="M0 0 C23.15808519 -2.07982803 23.15808519 -2.07982803 28.86328125 2.390625 C31.71275556 5.28165611 33.83843913 8.57717473 36 12 C37.11697638 13.31670064 38.26005982 14.61207822 39.4375 15.875 C41.55323682 18.30961582 43.64963783 20.76031273 45.7421875 23.21484375 C51.3316002 29.76667189 56.98470149 36.23004453 62.796875 42.5859375 C71 51.57446809 71 51.57446809 71 54 C78.4140425 46.82512016 85.07139395 38.986844 91.55859375 30.9765625 C94.7770125 27.05266636 98.08225837 23.20749804 101.39306641 19.36157227 C105.49361868 14.59728987 109.56010276 9.80522454 113.61083984 4.99853516 C116.89974483 1.10025517 116.89974483 1.10025517 118 0 C119.78071246 -0.08726223 121.5648314 -0.10699041 123.34765625 -0.09765625 C124.42724609 -0.09443359 125.50683594 -0.09121094 126.61914062 -0.08789062 C128.32360352 -0.07532227 128.32360352 -0.07532227 130.0625 -0.0625 C131.77276367 -0.05573242 131.77276367 -0.05573242 133.51757812 -0.04882812 C136.34510351 -0.03699747 139.1725264 -0.0205141 142 0 C140.60194053 2.91926795 139.31902644 4.86113632 136.9375 7.0625 C133.88622118 10.01249156 131.21490438 13.124289 128.5625 16.4375 C125.2152834 20.59736851 121.71894611 24.39447154 117.89453125 28.11328125 C115.41013869 30.58742889 113.13407214 33.21098681 110.84765625 35.8671875 C108.7628345 38.27376821 106.63478467 40.63764945 104.5 43 C99.6660046 48.34662645 99.6660046 48.34662645 94.99951172 53.83862305 C93 56 93 56 90.50415039 57.81201172 C84.97011975 62.353772 82.82906581 66.00486653 82.0949707 73.0480957 C81.66790774 80.42805367 81.76656727 87.79958525 81.875 95.1875 C81.87694375 97.78710995 81.87438363 100.38672741 81.8671875 102.98632812 C81.85939529 109.32549464 81.91300969 115.66145439 82 122 C75.07 122 68.14 122 61 122 C61.04882324 119.64838745 61.04882324 119.64838745 61.09863281 117.24926758 C61.20431478 111.38013562 61.22966878 105.51282942 61.23193359 99.64282227 C61.243869 97.11235484 61.27700426 94.58188849 61.33251953 92.05200195 C62.2638891 75.83660139 62.2638891 75.83660139 55.79046631 61.64762878 C53.33258251 59.21049938 50.74118062 57.11633248 48 55 C46.79661865 53.69970688 45.61799321 52.37440171 44.5 51 C41.41102606 47.42648113 38.21155931 43.96290727 35 40.5 C31.19285012 36.39415861 27.43686643 32.25871875 23.7734375 28.0234375 C20.71246636 24.53096382 17.56379039 21.11785248 14.43359375 17.6875 C11.73885193 14.71160534 9.09428737 11.69656914 6.47265625 8.65625 C5.01146552 6.9638578 5.01146552 6.9638578 3.30859375 5.40625 C2 4 2 4 2 2 C1.34 2 0.68 2 0 2 C0 1.34 0 0.68 0 0 Z " transform="translate(1042,902)" style="fill: #4FA388;"/><path d="M0 0 C0.66 0 1.32 0 2 0 C2.5576001 1.08547119 2.5576001 1.08547119 3.12646484 2.19287109 C12.06393754 19.61899258 12.06393754 19.61899258 21.4375 36.8125 C33 57.35918461 33 57.35918461 33 61 C11.88 61 -9.24 61 -31 61 C-28.7532097 54.2596291 -28.7532097 54.2596291 -26.8984375 51.0390625 C-26.4950415 50.32903076 -26.09164551 49.61899902 -25.67602539 48.88745117 C-25.24668701 48.14084229 -24.81734863 47.3942334 -24.375 46.625 C-21.12547043 40.87798987 -17.97554363 35.11256679 -15.0625 29.1875 C-10.23087284 19.36007644 -5.10842243 9.68565934 0 0 Z " transform="translate(1254,917)" style="fill: #FCFDFD;"/><path d="M0 0 C0.66 0 1.32 0 2 0 C6.32930644 8.09740648 10.63793813 16.19594038 14.6875 24.4375 C19.00742604 33.22607835 23.72036473 41.80741423 28.4284668 50.39233398 C29.01926025 51.47716064 29.61005371 52.5619873 30.21875 53.6796875 C30.75435547 54.65663574 31.28996094 55.63358398 31.84179688 56.64013672 C33 59 33 59 33 61 C11.88 61 -9.24 61 -31 61 C-29.56559271 56.69677813 -28.22066662 53.23130939 -26.1640625 49.28125 C-25.59985596 48.19416748 -25.03564941 47.10708496 -24.4543457 45.98706055 C-23.85066162 44.83633057 -23.24697754 43.68560059 -22.625 42.5 C-21.99879646 41.29931095 -21.37274022 40.09854506 -20.74682617 38.89770508 C-15.75816612 29.35013228 -10.62524154 19.88359122 -5.42578125 10.44921875 C-3.53194765 7.00358411 -1.72359646 3.53366098 0 0 Z " transform="translate(968,917)" style="fill: #FCFDFD;"/><path d="M0 0 C2.74663066 2.43304896 4.20264927 5.01041528 5.85546875 8.26953125 C6.39147705 9.31633057 6.92748535 10.36312988 7.47973633 11.44165039 C8.04329834 12.55403076 8.60686035 13.66641113 9.1875 14.8125 C12.77188994 21.80719369 16.34981701 28.77383989 20.3125 35.5625 C23.20432823 40.52167778 25.8709542 45.5549827 28.4375 50.6875 C28.78014893 51.37207275 29.12279785 52.05664551 29.47583008 52.76196289 C30.82094666 55.48271234 32.03891385 58.11674156 33 61 C11.88 61 -9.24 61 -31 61 C-30.19553411 56.97767053 -29.69173436 55.05731066 -27.77734375 51.69921875 C-27.32552734 50.89548828 -26.87371094 50.09175781 -26.40820312 49.26367188 C-25.92287109 48.41353516 -25.43753906 47.56339844 -24.9375 46.6875 C-21.47814225 40.52314768 -18.09999626 34.35314954 -15 28 C-10.34200962 18.48299927 -5.16198114 9.25045294 0 0 Z " transform="translate(797,917)" style="fill: #FCFDFD;"/><path d="M0 0 C0 267.96 0 535.92 0 812 C-0.33 812 -0.66 812 -1 812 C-1 544.37 -1 276.74 -1 1 C-31.46708166 -0.65396453 -31.46708166 -0.65396453 -51.23303986 12.76775265 C-51.99550774 13.59677373 -52.75797562 14.42579481 -53.54354858 15.27993774 C-54.43760784 16.23017948 -55.3316671 17.18042122 -56.25281906 18.15945816 C-56.70814003 18.6488195 -57.16346099 19.13818083 -57.63257957 19.6423713 C-60.0952596 22.24867408 -62.65864154 24.7530606 -65.20959473 27.2724762 C-70.16084467 32.19236355 -75.01823401 37.19547933 -79.84885563 42.23354248 C-85.48633642 48.10461411 -91.22002448 53.87787646 -96.96012567 59.64836355 C-107.19273528 69.9404378 -117.3464187 80.30680186 -127.45263672 90.72290039 C-137.25091955 100.82132212 -147.08898392 110.87832622 -156.97998047 120.88598633 C-157.59151482 121.50475707 -158.20304918 122.12352782 -158.83311488 122.76104919 C-161.29168011 125.24840631 -163.75049747 127.73551381 -166.2096569 130.22228347 C-185.00356488 149.22846399 -203.76154791 168.27137634 -222.3956604 187.43436241 C-224.34647811 189.44025471 -226.30057515 191.44285873 -228.25774765 193.44255066 C-230.91998816 196.16317072 -233.57012258 198.89537766 -236.21878052 201.62922668 C-237.00131073 202.42621044 -237.78384094 203.2231942 -238.5900842 204.04432899 C-239.29503706 204.77622276 -239.99998993 205.50811654 -240.72630501 206.26218891 C-241.33880737 206.89198259 -241.95130974 207.52177626 -242.58237278 208.17065459 C-244.10158601 210.1310894 -244.59441902 211.57472142 -245 214 C-245.99 212.68 -246.98 211.36 -248 210 C-222.00761794 183.13524621 -195.91374179 156.37308215 -169.68220576 129.74172324 C-166.57597845 126.58797681 -163.47059114 123.4334045 -160.36572266 120.27832031 C-159.74766135 119.65029121 -159.12960004 119.02226211 -158.49280961 118.37520182 C-148.52499448 108.24263808 -138.62652561 98.04491519 -128.75267057 87.82086432 C-118.5972896 77.30839703 -108.36929859 66.87071104 -98.07228339 56.49692059 C-91.73419399 50.1070268 -85.45744828 43.66762376 -79.25078316 37.14995742 C-74.97183525 32.66796706 -70.62339871 28.26145371 -66.21739618 23.90434384 C-63.68562988 21.39662601 -61.19258587 18.8706015 -58.77864456 16.24883652 C-57.43036135 14.80246496 -57.43036135 14.80246496 -56.05484009 13.32687378 C-55.2897261 12.48509016 -54.52461212 11.64330654 -53.73631287 10.77601433 C-34.78500174 -5.85771351 -30.27579251 0 0 0 Z " transform="translate(1342,24)" style="fill: #16676F;"/><path d="M0 0 C0 0.33 0 0.66 0 1 C-0.83404515 0.79224284 -1.66809031 0.58448568 -2.52740955 0.37043285 C-14.63853238 -2.1341581 -27.75150069 -2.8005213 -38.78940535 3.6233983 C-54.13475571 14.27910175 -67.07710312 28.78937191 -79.95261381 42.23350676 C-85.58431192 48.1070006 -91.3159412 53.87891976 -97.05386773 59.64836355 C-107.28241539 69.93854157 -117.42968932 80.30507634 -127.52807617 90.72290039 C-137.31831528 100.8225194 -147.14939044 110.87957892 -157.03491211 120.88598633 C-157.64618374 121.50475707 -158.25745537 122.12352782 -158.88725039 122.76104919 C-161.34478089 125.24841741 -163.80257394 127.73552578 -166.26072223 130.22228347 C-185.04540969 149.2268336 -203.79294225 168.26929379 -222.41395378 187.43436241 C-224.36316618 189.44024578 -226.31565103 191.44285054 -228.2712059 193.44255066 C-230.93121694 196.16316471 -233.57910739 198.89536934 -236.22550964 201.62922668 C-237.00735774 202.42621044 -237.78920583 203.2231942 -238.59474629 204.04432899 C-239.29908246 204.77622276 -240.00341863 205.50811654 -240.72909832 206.26218891 C-241.34105861 206.89198259 -241.95301891 207.52177626 -242.58352345 208.17065459 C-244.10145158 210.13102227 -244.59431727 211.57554584 -245 214 C-245.99 212.68 -246.98 211.36 -248 210 C-222.00761794 183.13524621 -195.91374179 156.37308215 -169.68220576 129.74172324 C-166.57597845 126.58797681 -163.47059114 123.4334045 -160.36572266 120.27832031 C-159.74766135 119.65029121 -159.12960004 119.02226211 -158.49280961 118.37520182 C-148.52499448 108.24263808 -138.62652561 98.04491519 -128.75267057 87.82086432 C-118.5972896 77.30839703 -108.36929859 66.87071104 -98.07228339 56.49692059 C-92.29903335 50.67648287 -86.56310477 44.82747835 -80.90888596 38.8911438 C-34.84481135 -9.4065478 -34.84481135 -9.4065478 0 0 Z " transform="translate(1342,24)" style="fill: #1D6E72;"/><path d="M0 0 C-1.36242426 3.06713244 -2.89699705 5.11840293 -5.3125 7.4375 C-5.88613281 7.99308594 -6.45976563 8.54867187 -7.05078125 9.12109375 C-7.69402344 9.74113281 -8.33726562 10.36117187 -9 11 C-10.66848088 12.66487885 -12.33459154 14.33205089 -14 16 C-15.41517015 17.41536573 -16.83044983 18.83062195 -18.24580383 20.24580383 C-19.06043594 21.06043594 -19.87506805 21.87506805 -20.71438599 22.71438599 C-50.47625732 52.47625732 -80.23812866 82.23812866 -110 112 C-110.66 111.34 -111.32 110.68 -112 110 C-97.69838563 95.65172522 -83.39109446 81.30913491 -69.07696724 66.9733429 C-62.43124172 60.31729198 -55.78740749 53.65937335 -49.14794922 46.99707031 C-43.36296471 41.19219053 -37.57450763 35.39080039 -31.78180206 29.59362507 C-28.71295429 26.52216336 -25.64590897 23.44894804 -22.58301163 20.37155151 C-19.70309226 17.47810919 -16.81857118 14.58933777 -13.93037415 11.70415878 C-12.86839328 10.64162538 -11.80813944 9.57736276 -10.74970627 8.51129532 C-9.3099135 7.0616243 -7.86341576 5.61862155 -6.41653442 4.17602539 C-5.60720018 3.36484756 -4.79786594 2.55366974 -3.96400642 1.71791077 C-2 0 -2 0 0 0 Z " transform="translate(641,688)" style="fill: #3A8285;"/><path d="M0 0 C0.99 0.99 0.99 0.99 2 2 C1.61531366 2.38376454 1.23062733 2.76752909 0.83428383 3.16292286 C-8.52425768 12.49938348 -17.88000064 21.83864036 -27.23273277 31.1809206 C-31.75571979 35.69868361 -36.27963459 40.21550945 -40.80566406 44.73022461 C-45.17149151 49.08520614 -49.53488902 53.44260854 -53.896595 57.80171776 C-55.56312939 59.46640099 -57.23054531 61.13020219 -58.89884567 62.79311562 C-61.23094774 65.11798471 -63.55992796 67.44593799 -65.88818359 69.7746582 C-66.58229843 70.46517776 -67.27641327 71.15569733 -67.99156189 71.86714172 C-68.62537277 72.50232727 -69.25918365 73.13751282 -69.91220093 73.79194641 C-70.46343313 74.34225682 -71.01466534 74.89256723 -71.58260155 75.45955372 C-73.21336195 77.15192122 -73.21336195 77.15192122 -75 80 C-75.66 78.68 -76.32 77.36 -77 76 C-73.76743024 72.71809541 -70.52842394 69.44273543 -67.28320312 66.17333984 C-66.17950702 65.05956877 -65.07761027 63.94401168 -63.97753906 62.82666016 C-62.39854926 61.22348763 -60.81325886 59.62679089 -59.2265625 58.03125 C-58.73378815 57.52815308 -58.24101379 57.02505615 -57.73330688 56.50671387 C-56.526244 55.29925487 -55.26721404 54.14417071 -54 53 C-53.34 53 -52.68 53 -52 53 C-51.61328125 52.12601562 -51.61328125 52.12601562 -51.21875 51.234375 C-49.90165983 48.8197097 -48.44911616 47.18259823 -46.5 45.25 C-45.58734375 44.32960938 -45.58734375 44.32960938 -44.65625 43.390625 C-43 42 -43 42 -41 42 C-41 41.34 -41 40.68 -41 40 C-40.34 40 -39.68 40 -39 40 C-38.7628125 39.43796875 -38.525625 38.8759375 -38.28125 38.296875 C-36.71052303 35.48105958 -34.78528536 33.52044584 -32.5 31.25 C-31.7059375 30.45078125 -30.911875 29.6515625 -30.09375 28.828125 C-28 27 -28 27 -26 27 C-25.773125 26.443125 -25.54625 25.88625 -25.3125 25.3125 C-23.62449964 22.33840412 -21.53323483 20.27991135 -19 18 C-18.34 18 -17.68 18 -17 18 C-17 17.34 -17 16.68 -17 16 C-16.34 16 -15.68 16 -15 16 C-14.75378906 15.41476562 -14.50757813 14.82953125 -14.25390625 14.2265625 C-12.80626232 11.65597983 -11.20757518 10.24544307 -8.9375 8.375 C-6.02124288 6.04514448 -6.02124288 6.04514448 -4 3 C-3.34 3 -2.68 3 -2 3 C-2 2.34 -2 1.68 -2 1 C-1.34 0.67 -0.68 0.34 0 0 Z " transform="translate(715,370)" style="fill: #3B8584;"/><path d="M0 0 C0 3.77910478 -0.99703962 4.46106101 -3.5 7.1875 C-4.1496875 7.90292969 -4.799375 8.61835937 -5.46875 9.35546875 C-5.9740625 9.89816406 -6.479375 10.44085937 -7 11 C-7.99 10.67 -8.98 10.34 -10 10 C-6.7 6.7 -3.4 3.4 0 0 Z " transform="translate(631,696)" style="fill: #488D8D;"/><path d="M0 0 C0.66 0.33 1.32 0.66 2 1 C1.67 1.66 1.34 2.32 1 3 C0.34 3 -0.32 3 -1 3 C-1.2475 3.639375 -1.495 4.27875 -1.75 4.9375 C-3 7 -3 7 -5.125 7.75 C-6.053125 7.87375 -6.053125 7.87375 -7 8 C-5.625 6 -5.625 6 -4 4 C-3.34 4 -2.68 4 -2 4 C-2 3.34 -2 2.68 -2 2 C-1.34 2 -0.68 2 0 2 C0 1.34 0 0.68 0 0 Z " transform="translate(656,671)" style="fill: #3C8586;"/><path d="M0 0 C0.66 0.33 1.32 0.66 2 1 C1.67 1.66 1.34 2.32 1 3 C0.34 3 -0.32 3 -1 3 C-1.2475 3.639375 -1.495 4.27875 -1.75 4.9375 C-3 7 -3 7 -5.125 7.75 C-6.053125 7.87375 -6.053125 7.87375 -7 8 C-5.625 6 -5.625 6 -4 4 C-3.34 4 -2.68 4 -2 4 C-2 3.34 -2 2.68 -2 2 C-1.34 2 -0.68 2 0 2 C0 1.34 0 0.68 0 0 Z " transform="translate(669,658)" style="fill: #3D8586;"/></svg>